# xmcd
#
# Track frame offsets:
#	150
#	17180
#	35148
#	63143
#	80132
#	103948
#	129955
#	144705
#	164397
#	182020
#	195788
#	210016
#	220498
#
# Disc length: 3234 seconds
#
# Revision: 8
# Processed by: cddbd v1.5.2PL0 Copyright (c) Steve Scherf et al.
# Submitted via: Jack! The Knife 20 Magnifico
#
DISCID=b50ca00d
DTITLE=Stryper - The Covering
DYEAR=2011
DGENRE=Metal
TTITLE0=Set Me Free
TTITLE1=Blackout
TTITLE2=Heaven And Hell
TTITLE3=Light's Out
TTITLE4=Carry On Wayward Son
TTITLE5=Highway Star
TTITLE6=Shout It Out Loud
TTITLE7=Over The Mountain
TTITLE8=The Trooper
TTITLE9=Breaking The Law
TTITLE10=On Fire
TTITLE11=Immigrant Song
TTITLE12=God
EXTD=Michael Sweet, Bill Edwards
EXTT0=Andy Scott
EXTT1=Schenker, Meine, Rarebell, Kittelsen
EXTT2=Dio, Iommi, Ward, Butler
EXTT3=Schenker, Mogg, Parker, Way
EXTT4=Kerry Livgren
EXTT5=Blackmore, Gillan, Glover, Lord, Paice
EXTT6=Stanley, Simmons, Ezrin
EXTT7=Osbourne, Rhoads, Daisley, Kerslake
EXTT8=Steve Harris
EXTT9=Halford, Downing, Tipton
EXTT10=E. Van Halen, A. Van Halen, Anthony, Roth
EXTT11=Page, Plant
EXTT12=Michael Sweet
PLAYORDER=
